<?xml version="1.0" encoding="UTF-8" standalone="no"?>
<!-- Created with Inkscape (http://www.inkscape.org/) -->

<svg
   xmlns:dc="http://purl.org/dc/elements/1.1/"
   xmlns:cc="http://creativecommons.org/ns#"
   xmlns:rdf="http://www.w3.org/1999/02/22-rdf-syntax-ns#"
   xmlns:svg="http://www.w3.org/2000/svg"
   xmlns="http://www.w3.org/2000/svg"
   xmlns:sodipodi="http://sodipodi.sourceforge.net/DTD/sodipodi-0.dtd"
   xmlns:inkscape="http://www.inkscape.org/namespaces/inkscape"
   id="svg2"
   version="1.1"
   inkscape:version="0.92.4 (5da689c313, 2019-01-14)"
   xml:space="preserve"
   width="1180.0056"
   height="1539.7405"
   viewBox="0 0 1106.2553 1443.5067"
   sodipodi:docname="Pozi-Bottom-200px-border.svg"
   inkscape:export-filename="C:\Users\Simon\Google Drive\Marketing\Groundtruth Logo\2015 Vision Cloud\Mod\Pozi-Bottom-border-200x261.png"
   inkscape:export-xdpi="16.27"
   inkscape:export-ydpi="16.27"><metadata
     id="metadata8"><rdf:RDF><cc:Work
         rdf:about=""><dc:format>image/svg+xml</dc:format><dc:type
           rdf:resource="http://purl.org/dc/dcmitype/StillImage" /><dc:title></dc:title></cc:Work></rdf:RDF></metadata><defs
     id="defs6"><clipPath
       clipPathUnits="userSpaceOnUse"
       id="clipPath16"><path
         d="M 0,615 H 4502 V 0 H 0 Z"
         id="path18"
         inkscape:connector-curvature="0" /></clipPath><clipPath
       clipPathUnits="userSpaceOnUse"
       id="clipPath28"><path
         d="M 0,0 H 612 V 615 H 0 Z"
         id="path30"
         inkscape:connector-curvature="0" /></clipPath></defs><sodipodi:namedview
     pagecolor="#ffffff"
     bordercolor="#666666"
     borderopacity="1"
     objecttolerance="10"
     gridtolerance="10"
     guidetolerance="10"
     inkscape:pageopacity="0"
     inkscape:pageshadow="2"
     inkscape:window-width="1686"
     inkscape:window-height="1046"
     id="namedview4"
     showgrid="false"
     inkscape:zoom="0.417193"
     inkscape:cx="-74.186204"
     inkscape:cy="660.78829"
     inkscape:window-x="856"
     inkscape:window-y="99"
     inkscape:window-maximized="0"
     inkscape:current-layer="g10"
     inkscape:snap-text-baseline="true"
     fit-margin-top="200"
     fit-margin-left="200"
     fit-margin-right="200"
     fit-margin-bottom="200" /><g
     id="g10"
     inkscape:groupmode="layer"
     inkscape:label="GroundtruthSide"
     transform="matrix(1.25,0,0,-1.25,174.4315,927.81509)"><g
       id="g12"
       transform="matrix(0.40646984,0,0,0.40646984,-274.60791,-262.55334)"><g
         id="g14"
         clip-path="url(#clipPath16)"><text
   transform="scale(1,-1)"
   style="font-variant:normal;font-weight:normal;font-stretch:normal;font-size:11.83368111px;line-height:0%;font-family:'Myriad Pro';-inkscape-font-specification:MyriadPro-Regular;writing-mode:lr-tb;fill:#70925c;fill-opacity:1;fill-rule:nonzero;stroke:none;stroke-width:0.98614013"
   id="text20"
   x="644.12085"
   y="-4.8968825"
   inkscape:export-xdpi="83.830002"
   inkscape:export-ydpi="83.830002"><tspan
     sodipodi:role="line"
     id="tspan22"
     x="644.12085"
     y="-4.8968825"
     style="font-weight:bold;font-size:866.98199463px;line-height:1.25;stroke-width:0.98614013"
     dx="0 -47.2192 -33.310482 -23.890654">Pozi</tspan></text>



</g></g><g
       id="g24"
       inkscape:export-xdpi="83.830002"
       inkscape:export-ydpi="83.830002"
       transform="matrix(0.98660103,0,0,0.98660103,0.14008369,-4.6414565)"><g
         id="g26"
         clip-path="url(#clipPath28)"><g
           id="g32"
           transform="translate(402.9859,393.5229)"><path
             d="m 0,0 c 0,-12.499 -10.131,-22.631 -22.629,-22.631 h -42.028 c -10.116,0 -26.311,-40.942 -32.328,-40.942 -6.016,0 -22.065,40.942 -32.126,40.942 h -42.23 c -12.499,0 -22.631,10.132 -22.631,22.631 v 122.849 c 0,12.497 10.132,22.628 22.631,22.628 H -22.629 C -10.131,145.477 0,135.346 0,122.849 Z m 200.4,-12.482 v 23.521 h 0.006 v 76.38 95.522 28.536 H -392.531 V 182.941 87.419 11.039 -14.186 c 0.667,-0.162 1.346,-0.3 2,-0.49 5.194,-1.501 10.529,-2.676 15.642,-4.37 2.841,-0.941 5.79,-1.676 8.678,-2.529 3.861,-1.139 7.718,-2.287 11.562,-3.461 1.946,-0.594 3.846,-1.281 5.792,-1.875 4.558,-1.393 9.137,-2.742 13.694,-4.137 1.089,-0.333 2.113,-0.794 3.185,-1.165 1.349,-0.466 2.717,-0.899 4.076,-1.348 2.718,-0.897 5.445,-1.778 8.151,-2.697 3.284,-1.116 6.543,-2.278 9.826,-3.395 3.149,-1.072 6.324,-2.096 9.47,-3.174 1.454,-0.498 2.848,-1.106 4.299,-1.611 2.506,-0.871 5.065,-1.648 7.548,-2.557 6.288,-2.3 12.55,-4.644 18.813,-6.984 6.094,-2.278 12.212,-4.517 18.255,-6.876 6.585,-2.572 13.099,-5.258 19.64,-7.902 4.983,-2.014 9.984,-4.005 14.933,-6.072 6.551,-2.737 13.075,-5.515 19.581,-8.318 14.732,-6.346 29.417,-12.758 43.827,-19.559 7.468,-3.524 15.049,-6.901 22.466,-10.491 11.149,-5.396 22.198,-10.921 33.292,-16.388 0.558,-0.275 1.136,-0.524 1.727,-0.794 0.787,0.376 1.493,0.704 2.188,1.048 9.861,4.877 19.646,9.854 29.599,14.61 11.98,5.725 24.036,11.353 36.176,16.86 19.633,8.906 39.399,17.624 59.579,25.735 12.285,4.937 24.442,10.075 36.943,14.673 9.647,3.549 19.21,7.243 28.88,10.751 7.336,2.66 14.778,5.137 22.181,7.679 6.757,2.321 13.495,4.679 20.298,6.912 6.487,2.128 13.037,4.14 19.581,6.157 5.342,1.647 10.704,3.252 16.079,4.828 5.817,1.704 11.659,3.353 17.491,5.026 2.499,0.717 4.998,1.434 7.497,2.151 -0.007,0.489 -0.018,0.978 -0.018,1.467"
             style="fill:#70925c;fill-opacity:1;fill-rule:nonzero;stroke:none"
             id="path34"
             inkscape:connector-curvature="0" /></g><g
           id="g36"
           transform="translate(10.4548,330.1255)"><path
             d="m 0,0 c 1.108,-0.387 2.236,-0.742 3.319,-1.168 2.804,-1.103 5.58,-2.25 8.381,-3.358 3.953,-1.563 7.966,-3.036 11.872,-4.672 11.717,-4.907 23.446,-9.797 35.073,-14.836 15.479,-6.708 30.606,-13.898 45.699,-21.141 19.235,-9.23 38.04,-18.984 56.69,-28.926 9.942,-5.299 19.67,-10.855 29.41,-16.389 7.941,-4.513 15.76,-9.162 23.626,-13.757 1.574,-0.919 3.12,-1.867 4.673,-2.808 0.356,-0.216 0.687,-0.459 1.118,-0.75 -0.45,-0.285 -0.789,-0.522 -1.156,-0.728 -18.122,-10.196 -35.923,-20.738 -53.535,-31.477 -10.64,-6.487 -21.135,-13.126 -31.6,-19.789 -10.346,-6.587 -20.612,-13.254 -30.84,-19.956 -7.175,-4.701 -14.254,-9.494 -21.325,-14.293 -8.125,-5.516 -16.236,-11.044 -24.274,-16.638 -8.695,-6.053 -17.324,-12.166 -25.935,-18.293 -7.807,-5.555 -15.553,-11.165 -23.324,-16.752 -2.172,-1.562 -4.328,-3.136 -6.508,-4.69 C 0.95,-250.716 0.457,-250.94 0,-251.197 Z"
             style="fill:#70925c;fill-opacity:1;fill-rule:nonzero;stroke:none"
             id="path38"
             inkscape:connector-curvature="0" /></g><g
           id="g40"
           transform="translate(498.6917,10.4247)"><path
             d="M 0,0 C -0.565,-0.016 -1.13,-0.047 -1.695,-0.047 -128.65,-0.05 -255.606,-0.049 -382.561,-0.05 c -0.36,0 -0.72,-10e-4 -1.08,-0.002 0.545,0.627 1.039,1.288 1.643,1.877 9.496,9.275 18.918,18.599 28.541,27.791 8.933,8.532 18.024,16.961 27.16,25.358 6.146,5.648 12.427,11.206 18.764,16.722 7.721,6.721 15.503,13.4 23.373,20.013 6.671,5.604 13.442,11.137 20.283,16.612 8.107,6.489 16.237,12.966 24.54,19.297 10.045,7.658 20.235,15.198 30.455,22.71 5.353,3.935 10.906,7.699 16.37,11.539 0.187,0.132 0.39,0.248 0.676,0.429 1.545,-1.054 3.087,-2.058 4.561,-3.12 8.407,-6.062 16.893,-12.058 25.171,-18.229 10.416,-7.765 20.757,-15.596 30.943,-23.549 8.685,-6.781 17.209,-13.697 25.615,-20.695 10,-8.325 19.896,-16.733 29.656,-25.236 8.098,-7.055 16.019,-14.241 23.863,-21.474 9.286,-8.562 18.49,-17.182 27.572,-25.88 C -16.453,16.45 -8.667,8.646 -0.79,0.901 -0.501,0.617 -0.262,0.301 0,0"
             style="fill:#70925c;fill-opacity:1;fill-rule:nonzero;stroke:none"
             id="path42"
             inkscape:connector-curvature="0" /></g><g
           id="g44"
           transform="translate(603.0609,330.1613)"><path
             d="M 0,0 C 0.105,-0.175 0.281,-0.344 0.302,-0.525 0.35,-0.93 0.324,-1.34 0.324,-1.748 c 0,-82.609 0.001,-165.217 -0.014,-247.826 0,-0.582 -0.209,-1.164 -0.32,-1.746 -7.942,5.742 -15.856,11.509 -23.833,17.22 -8.091,5.793 -16.204,11.568 -24.381,17.284 -9.797,6.849 -19.591,13.702 -29.533,20.417 -12.251,8.276 -24.593,16.47 -37.01,24.589 -10.155,6.642 -20.425,13.176 -30.742,19.66 -9.309,5.849 -18.716,11.602 -28.144,17.333 -14.693,8.931 -29.577,17.66 -44.677,26.156 -0.411,0.231 -0.789,0.5 -1.333,0.847 1.154,0.707 2.197,1.346 3.239,1.986 13.221,8.114 26.897,15.733 40.529,23.401 11.536,6.488 23.35,12.649 35.14,18.842 16.383,8.606 33.173,16.689 49.978,24.755 12.231,5.871 24.691,11.429 37.222,16.882 14.832,6.455 29.801,12.705 45.002,18.601 C -5.697,-2.24 -2.851,-1.116 0,0"
             style="fill:#70925c;fill-opacity:1;fill-rule:nonzero;stroke:none"
             id="path46"
             inkscape:connector-curvature="0" /></g></g></g></g></svg>